<?xml version="1.0" standalone="no"?>
<!DOCTYPE svg PUBLIC "-//W3C//DTD SVG 20010904//EN"
 "http://www.w3.org/TR/2001/REC-SVG-20010904/DTD/svg10.dtd">
<svg version="1.0" xmlns="http://www.w3.org/2000/svg"
 width="640.000000pt" height="640.000000pt" viewBox="0 0 640.000000 640.000000"
 preserveAspectRatio="xMidYMid meet">
<metadata>
Created by potrace 1.11, written by Peter Selinger 2001-2013
</metadata>
<g transform="translate(0.000000,640.000000) scale(0.100000,-0.100000)"
fill="#000000" stroke="none">
<path d="M535 6385 c-233 -51 -417 -215 -499 -444 l-31 -86 0 -2650 0 -2650
27 -80 c74 -217 226 -369 443 -443 l80 -27 2635 0 c2901 0 2675 -5 2825 64
143 67 257 184 324 333 60 133 56 -59 56 2808 l0 2635 -27 80 c-77 226 -236
380 -470 453 -49 15 -272 17 -2678 19 -2146 1 -2636 -1 -2685 -12z m2640 -987
c-2 -13 -54 -286 -115 -608 -61 -322 -113 -597 -116 -612 l-6 -28 479 0 479 0
120 633 121 632 151 3 c84 1 152 -1 152 -5 0 -12 -230 -1225 -236 -1245 -5
-17 16 -18 345 -18 l351 0 0 -145 0 -145 -377 -2 -376 -3 -123 -650 c-68 -357
-123 -658 -123 -667 -1 -17 24 -18 384 -18 l385 0 0 -145 0 -145 -414 0 c-386
0 -415 -1 -420 -17 -2 -10 -55 -291 -118 -625 l-113 -608 -152 0 c-84 0 -153
2 -153 4 0 2 52 279 115 616 63 336 115 616 115 621 0 5 -190 9 -474 9 l-474
0 -9 -42 c-5 -24 -59 -305 -119 -625 l-109 -583 -153 0 -154 0 6 27 c15 69
226 1203 226 1213 0 7 -125 10 -385 10 l-385 0 0 145 0 145 415 0 c228 0 415
4 415 8 0 9 236 1270 245 1310 l5 22 -425 0 -425 0 0 145 0 145 452 2 453 3
120 632 120 633 153 0 152 0 -5 -22z"/>
<path d="M2759 3193 l-125 -668 475 -3 c261 -1 476 -1 478 2 3 3 253 1318 253
1331 0 3 -215 5 -478 5 l-478 0 -125 -667z"/>
</g>
</svg>
